<svg width="25" height="24" viewBox="0 0 25 24" fill="none" xmlns="http://www.w3.org/2000/svg">
<path fill-rule="evenodd" clip-rule="evenodd" d="M5.81669 4.18644C5.36759 3.73733 4.63945 3.73733 4.19034 4.18644C3.74124 4.63554 3.74124 5.36368 4.19034 5.81278L10.3772 11.9996L4.19034 18.1864L4.54205 18.5381L4.19034 18.1864C3.74124 18.6355 3.74124 19.3637 4.19034 19.8128C4.63945 20.2619 5.36759 20.2619 5.81669 19.8128L12.0035 13.626L18.1903 19.8128C18.6394 20.2619 19.3676 20.2619 19.8167 19.8128C20.2658 19.3637 20.2658 18.6355 19.8167 18.1864L13.6299 11.9996L19.8167 5.81278C20.2658 5.36368 20.2658 4.63554 19.8167 4.18644C19.3676 3.73733 18.6394 3.73733 18.1903 4.18644L18.542 4.53814L18.1903 4.18644L12.0035 10.3733L5.81669 4.18644Z" fill="white"/>
</svg>
